<?xml version="1.0" encoding="utf-8"?>
<!-- Generator: Adobe Illustrator 15.1.0, SVG Export Plug-In . SVG Version: 6.00 Build 0)  -->
<!DOCTYPE svg PUBLIC "-//W3C//DTD SVG 1.1//EN" "http://www.w3.org/Graphics/SVG/1.1/DTD/svg11.dtd" [
	<!ENTITY ns_extend "http://ns.adobe.com/Extensibility/1.0/">
	<!ENTITY ns_ai "http://ns.adobe.com/AdobeIllustrator/10.0/">
	<!ENTITY ns_graphs "http://ns.adobe.com/Graphs/1.0/">
	<!ENTITY ns_vars "http://ns.adobe.com/Variables/1.0/">
	<!ENTITY ns_imrep "http://ns.adobe.com/ImageReplacement/1.0/">
	<!ENTITY ns_sfw "http://ns.adobe.com/SaveForWeb/1.0/">
	<!ENTITY ns_custom "http://ns.adobe.com/GenericCustomNamespace/1.0/">
	<!ENTITY ns_adobe_xpath "http://ns.adobe.com/XPath/1.0/">
]>
<svg version="1.1" id="레이어_1" xmlns:x="&ns_extend;" xmlns:i="&ns_ai;" xmlns:graph="&ns_graphs;"
	 xmlns="http://www.w3.org/2000/svg" xmlns:xlink="http://www.w3.org/1999/xlink" x="0px" y="0px" width="65.197px"
	 height="14.173px" viewBox="0 0 65.197 14.173" enable-background="new 0 0 65.197 14.173" xml:space="preserve">
<metadata>
	<sfw  xmlns="&ns_sfw;">
		<slices></slices>
		<sliceSourceBounds  x="253.896" y="-8589" height="16383" width="74.771" bottomLeftOrigin="true"></sliceSourceBounds>
	</sfw>
</metadata>
<g>
	<path d="M11.338,2.446h0.429v9.282h-0.26V2.771h-0.025l-3.939,8.958H7.256L3.316,2.771H3.291v8.958H3.03V2.446h0.43l3.926,8.944
		h0.026L11.338,2.446z"/>
	<path d="M18.644,11.728h-0.26v-1.65h-0.026c-0.247,1.026-1.092,1.807-2.405,1.807c-1.391,0-2.379-0.858-2.379-2.405V5.046h0.26
		V9.44c0,1.547,0.988,2.185,2.119,2.185c1.6,0,2.432-1.313,2.432-2.795V5.046h0.26V11.728z"/>
	<path d="M24.819,7.022c0-1.339-0.884-1.872-2.158-1.872c-1.872,0-2.002,1.184-2.002,1.417c0,0.663,0.286,0.987,0.741,1.17
		c0.468,0.183,1.001,0.299,1.716,0.494c1.027,0.26,2.145,0.521,2.145,1.794c0,1.339-1.261,1.859-2.418,1.859
		c-1.755,0-2.704-0.768-2.704-2.444h0.261c0,1.481,0.896,2.185,2.443,2.185c0.963,0,2.158-0.43,2.158-1.574
		c0-1.183-1.157-1.364-2.301-1.65c-0.637-0.156-1.118-0.286-1.495-0.455c-0.546-0.234-0.806-0.663-0.806-1.378
		c0-0.741,0.598-1.677,2.262-1.677c1.482,0,2.418,0.65,2.418,2.132H24.819z"/>
	<path d="M27.132,3.759h-0.26V2.446h0.26V3.759z M27.132,11.728h-0.26V5.046h0.26V11.728z"/>
	<path d="M34.335,9.453c-0.144,1.495-1.223,2.432-2.73,2.432c-1.898,0-2.964-1.534-2.964-3.354c0-1.937,0.975-3.64,3.12-3.64
		c1.248,0,2.353,0.767,2.521,2.184h-0.26c-0.208-1.3-1.157-1.924-2.262-1.924c-2.133,0-2.86,1.807-2.86,3.38
		c0,1.638,0.936,3.095,2.704,3.095c1.312,0,2.366-0.832,2.47-2.172H34.335z"/>
	<path d="M44.033,7.646v-0.26h3.861v4.355h-0.26V9.427h-0.025c-0.482,1.572-1.898,2.521-3.705,2.521
		c-2.873,0-4.355-2.184-4.355-4.861c0-2.718,1.625-4.863,4.355-4.863c2.08,0,3.549,1.222,3.848,3.12h-0.26
		c-0.326-1.729-1.664-2.86-3.588-2.86c-2.588,0-4.096,2.08-4.096,4.603c0,2.521,1.391,4.602,4.135,4.602
		c2.053,0,3.691-1.508,3.691-3.562v-0.48H44.033z"/>
	<path d="M49.492,8.439c0.027,1.794,0.742,3.186,2.641,3.186c1.377,0,2.391-0.768,2.611-2.211h0.262
		c-0.184,1.534-1.326,2.471-2.848,2.471c-2.068,0.025-2.926-1.508-2.926-3.498c0-2.223,1.418-3.497,2.926-3.497
		c2.08,0,3.002,1.716,2.924,3.549H49.492z M54.822,8.179c0.014-1.639-0.91-3.029-2.639-3.029c-1.443,0-2.6,1.156-2.691,3.029H54.822
		z"/>
	<path d="M56.512,5.046h0.26v1.651h0.027C57.045,5.67,57.891,4.89,58.93,4.89c1.041-0.026,1.781,0.572,2.002,1.56h0.027
		c0.26-0.923,1.105-1.56,2.119-1.56c1.611,0,2.119,1,2.119,2.444v4.395h-0.26V7.333c0-1.326-0.404-2.184-1.859-2.184
		c-1.314,0-2.08,1.092-2.094,2.34v4.238h-0.26v-4.29c0.014-1.235-0.312-2.288-1.795-2.288c-1.326,0-2.158,1.312-2.158,2.795v3.783
		h-0.26V5.046z"/>
</g>
</svg>
