<?xml version="1.0" encoding="utf-8"?>
<!-- Generator: Adobe Illustrator 15.1.0, SVG Export Plug-In . SVG Version: 6.00 Build 0)  -->
<!DOCTYPE svg PUBLIC "-//W3C//DTD SVG 1.1//EN" "http://www.w3.org/Graphics/SVG/1.1/DTD/svg11.dtd" [
	<!ENTITY ns_extend "http://ns.adobe.com/Extensibility/1.0/">
	<!ENTITY ns_ai "http://ns.adobe.com/AdobeIllustrator/10.0/">
	<!ENTITY ns_graphs "http://ns.adobe.com/Graphs/1.0/">
	<!ENTITY ns_vars "http://ns.adobe.com/Variables/1.0/">
	<!ENTITY ns_imrep "http://ns.adobe.com/ImageReplacement/1.0/">
	<!ENTITY ns_sfw "http://ns.adobe.com/SaveForWeb/1.0/">
	<!ENTITY ns_custom "http://ns.adobe.com/GenericCustomNamespace/1.0/">
	<!ENTITY ns_adobe_xpath "http://ns.adobe.com/XPath/1.0/">
]>
<svg version="1.1" id="레이어_1" xmlns:x="&ns_extend;" xmlns:i="&ns_ai;" xmlns:graph="&ns_graphs;"
	 xmlns="http://www.w3.org/2000/svg" xmlns:xlink="http://www.w3.org/1999/xlink" x="0px" y="0px" width="65.197px"
	 height="14.173px" viewBox="0 0 65.197 14.173" enable-background="new 0 0 65.197 14.173" xml:space="preserve">
<metadata>
	<sfw  xmlns="&ns_sfw;">
		<slices></slices>
		<sliceSourceBounds  x="253.689" y="-8589" height="16383" width="74.978" bottomLeftOrigin="true"></sliceSourceBounds>
	</sfw>
</metadata>
<g>
	<g>
		<path d="M9.285,5.113C9.22,3.214,7.946,2.552,6.269,2.552c-1.313,0-2.912,0.467-2.912,2.131c0,1.678,1.612,1.873,3.198,2.25
			C8.284,7.375,9.727,7.583,9.727,9.52c0,1.755-1.69,2.496-3.276,2.496c-2.106,0-3.667-0.962-3.627-3.302h0.26
			c0,2.223,1.391,3.041,3.367,3.041c1.456,0,3.016-0.649,3.016-2.248c0-1.873-1.82-2.028-3.25-2.379
			c-1.508-0.352-3.12-0.625-3.12-2.445c0-1.846,1.677-2.392,3.172-2.392c1.82,0,3.185,0.741,3.276,2.821H9.285z"/>
		<path d="M13.054,5.373v5.122c0,1.001,0.494,1.04,0.897,1.04c0.26,0,0.494-0.013,0.571-0.039v0.26
			c-0.155,0.014-0.233,0.039-0.637,0.039c-0.611,0-1.093-0.299-1.093-1.248V5.373h-1.234v-0.26h1.234V3.006h0.261v2.106h1.508v0.26
			H13.054z"/>
		<path d="M19.437,4.957c1.95,0,3.003,1.678,3.003,3.497c0,1.833-1.053,3.497-3.016,3.497c-1.95,0-3.003-1.664-3.003-3.497
			C16.421,6.634,17.474,4.957,19.437,4.957z M19.437,11.691c1.781,0,2.743-1.547,2.743-3.237c0-1.664-0.962-3.237-2.743-3.237
			c-1.807,0-2.756,1.573-2.756,3.237C16.681,10.144,17.63,11.691,19.437,11.691z"/>
		<path d="M25.079,11.794h-0.26V5.113h0.26v1.65h0.026c0.247-0.987,1.027-1.858,2.626-1.807v0.26
			c-1.833-0.091-2.652,1.34-2.652,2.795V11.794z"/>
		<path d="M33.945,5.113h0.273l-3.082,8.047c-0.352,0.91-0.962,0.937-1.768,0.937v-0.261c0.883,0.014,1.248-0.051,1.56-0.857
			l0.481-1.248l-2.796-6.617h0.286l2.652,6.331L33.945,5.113z"/>
		<path d="M44.034,7.712v-0.26h3.861v4.355h-0.261V9.494h-0.025c-0.481,1.573-1.898,2.522-3.705,2.522
			c-2.873,0-4.355-2.185-4.355-4.862c0-2.717,1.625-4.862,4.355-4.862c2.08,0,3.549,1.222,3.848,3.12h-0.26
			c-0.325-1.729-1.664-2.859-3.588-2.859c-2.587,0-4.096,2.08-4.096,4.602s1.392,4.602,4.135,4.602c2.054,0,3.691-1.508,3.691-3.562
			V7.712H44.034z"/>
		<path d="M49.493,8.505c0.026,1.795,0.741,3.186,2.639,3.186c1.379,0,2.393-0.768,2.613-2.21h0.261
			c-0.183,1.534-1.326,2.47-2.848,2.47c-2.067,0.026-2.925-1.508-2.925-3.497c0-2.223,1.417-3.497,2.925-3.497
			c2.08,0,3.003,1.717,2.925,3.549H49.493z M54.823,8.246c0.014-1.638-0.91-3.029-2.639-3.029c-1.443,0-2.601,1.157-2.691,3.029
			H54.823z"/>
		<path d="M56.513,5.113h0.26v1.65h0.026c0.247-1.026,1.092-1.807,2.132-1.807c1.04-0.025,1.781,0.572,2.002,1.561h0.026
			c0.26-0.924,1.105-1.561,2.119-1.561c1.612,0,2.119,1.001,2.119,2.444v4.394h-0.26V7.401c0-1.326-0.403-2.185-1.859-2.185
			c-1.313,0-2.08,1.092-2.093,2.34v4.238h-0.261V7.505c0.014-1.236-0.312-2.289-1.794-2.289c-1.326,0-2.158,1.313-2.158,2.795v3.783
			h-0.26V5.113z"/>
	</g>
</g>
</svg>
