<?xml version="1.0" encoding="utf-8"?>
<!-- Generator: Adobe Illustrator 15.1.0, SVG Export Plug-In . SVG Version: 6.00 Build 0)  -->
<!DOCTYPE svg PUBLIC "-//W3C//DTD SVG 1.1//EN" "http://www.w3.org/Graphics/SVG/1.1/DTD/svg11.dtd" [
	<!ENTITY ns_extend "http://ns.adobe.com/Extensibility/1.0/">
	<!ENTITY ns_ai "http://ns.adobe.com/AdobeIllustrator/10.0/">
	<!ENTITY ns_graphs "http://ns.adobe.com/Graphs/1.0/">
	<!ENTITY ns_vars "http://ns.adobe.com/Variables/1.0/">
	<!ENTITY ns_imrep "http://ns.adobe.com/ImageReplacement/1.0/">
	<!ENTITY ns_sfw "http://ns.adobe.com/SaveForWeb/1.0/">
	<!ENTITY ns_custom "http://ns.adobe.com/GenericCustomNamespace/1.0/">
	<!ENTITY ns_adobe_xpath "http://ns.adobe.com/XPath/1.0/">
]>
<svg version="1.1" id="레이어_1" xmlns:x="&ns_extend;" xmlns:i="&ns_ai;" xmlns:graph="&ns_graphs;"
	 xmlns="http://www.w3.org/2000/svg" xmlns:xlink="http://www.w3.org/1999/xlink" x="0px" y="0px" width="14.173px"
	 height="14.173px" viewBox="0 0 14.173 14.173" enable-background="new 0 0 14.173 14.173" xml:space="preserve">
<metadata>
	<sfw  xmlns="&ns_sfw;">
		<slices></slices>
		<sliceSourceBounds  x="291.963" y="-427.291" height="12.692" width="11.355" bottomLeftOrigin="true"></sliceSourceBounds>
	</sfw>
</metadata>
<g>
	<path d="M11.56,4.956v7.25l0.449-0.265V4.693L11.56,4.956z"/>
	<g>
		<path d="M10.897,4.826c-0.035,0-0.07-0.008-0.104-0.027L8.967,3.764C8.87,3.71,8.839,3.591,8.896,3.5
			c0.058-0.092,0.182-0.122,0.277-0.067l1.828,1.034c0.096,0.055,0.129,0.173,0.07,0.265C11.034,4.792,10.966,4.826,10.897,4.826z"
			/>
		<path d="M10.897,13.433c-0.037,0-0.074-0.01-0.107-0.028l-3.05-1.816c-0.096-0.058-0.124-0.175-0.064-0.267
			c0.059-0.089,0.184-0.117,0.279-0.062l3.05,1.817c0.096,0.056,0.123,0.175,0.064,0.266C11.03,13.401,10.966,13.433,10.897,13.433z
			"/>
		<path d="M10.897,13.433c-0.033,0-0.068-0.008-0.098-0.024c-0.064-0.033-0.105-0.099-0.105-0.167V4.633
			c0-0.067,0.037-0.129,0.098-0.165l1.373-0.805L7.71,1.212C7.468,1.079,7.16,1.104,6.944,1.274L6.216,1.851
			C6.127,1.92,6.078,2.023,6.078,2.132v5.955c0,0.106-0.092,0.194-0.203,0.194S5.671,8.193,5.671,8.087V2.132
			c0-0.225,0.105-0.436,0.286-0.579l0.728-0.576C7.03,0.704,7.524,0.664,7.914,0.878l4.726,2.602
			c0.037,0.015,0.072,0.041,0.094,0.077c0.021,0.033,0.031,0.069,0.031,0.104v8.605c0,0.066-0.037,0.128-0.098,0.163l-1.664,0.976
			C10.972,13.423,10.935,13.433,10.897,13.433z M11.101,4.741v8.154l1.258-0.737V4.002L11.101,4.741z"/>
		<path d="M9.692,7.024c-0.039,0-0.078-0.011-0.113-0.032L8.262,6.151c-0.056-0.035-0.09-0.097-0.09-0.161V3.38L6.667,2.447
			C6.575,2.389,6.548,2.269,6.609,2.18s0.188-0.115,0.28-0.057l1.596,0.99C8.542,3.149,8.577,3.21,8.577,3.275v2.612l0.912,0.582
			v-2.5c0-0.106,0.092-0.193,0.203-0.193s0.203,0.086,0.203,0.193v2.861c0,0.071-0.041,0.138-0.107,0.171
			C9.757,7.017,9.726,7.024,9.692,7.024z"/>
	</g>
	<g>
		<g>
			<path d="M7.162,9.801c-0.111,0-0.202-0.086-0.202-0.194v-0.51c0-0.131-0.112-0.238-0.249-0.238H3.582
				c-0.137,0-0.249,0.107-0.249,0.238v0.51c0,0.108-0.091,0.194-0.202,0.194S2.927,9.715,2.927,9.606v-0.51
				c0-0.345,0.294-0.624,0.654-0.624H6.71c0.36,0,0.654,0.279,0.654,0.624v0.51C7.365,9.715,7.273,9.801,7.162,9.801z"/>
			<path d="M2.779,13.433H1.963c-0.305,0-0.554-0.236-0.554-0.527v-0.282c0-0.291,0.249-0.527,0.554-0.527h0.408
				c0.112,0,0.203,0.086,0.203,0.192c0,0.107-0.091,0.193-0.203,0.193H1.963c-0.082,0-0.148,0.063-0.148,0.142v0.282
				c0,0.079,0.066,0.142,0.148,0.142h0.816c0.082,0,0.148-0.062,0.148-0.142V9.606c0-0.105,0.092-0.191,0.203-0.191
				s0.202,0.086,0.202,0.191v3.299C3.333,13.196,3.084,13.433,2.779,13.433z"/>
			<path d="M6.811,13.433H5.995c-0.306,0-0.554-0.236-0.554-0.527v-0.282c0-0.291,0.248-0.527,0.554-0.527h0.408
				c0.112,0,0.202,0.086,0.202,0.192c0,0.107-0.09,0.193-0.202,0.193H5.995c-0.082,0-0.149,0.063-0.149,0.142v0.282
				c0,0.079,0.067,0.142,0.149,0.142h0.816c0.081,0,0.148-0.062,0.148-0.142V9.606c0-0.105,0.091-0.191,0.202-0.191
				s0.203,0.086,0.203,0.191v3.299C7.365,13.196,7.116,13.433,6.811,13.433z"/>
			<path d="M6.403,9.801H3.889c-0.112,0-0.202-0.086-0.202-0.194c0-0.105,0.09-0.191,0.202-0.191h2.514
				c0.112,0,0.202,0.086,0.202,0.191C6.605,9.715,6.515,9.801,6.403,9.801z"/>
		</g>
	</g>
</g>
</svg>
