<?xml version="1.0" encoding="utf-8"?>
<!-- Generator: Adobe Illustrator 15.1.0, SVG Export Plug-In . SVG Version: 6.00 Build 0)  -->
<!DOCTYPE svg PUBLIC "-//W3C//DTD SVG 1.1//EN" "http://www.w3.org/Graphics/SVG/1.1/DTD/svg11.dtd" [
	<!ENTITY ns_extend "http://ns.adobe.com/Extensibility/1.0/">
	<!ENTITY ns_ai "http://ns.adobe.com/AdobeIllustrator/10.0/">
	<!ENTITY ns_graphs "http://ns.adobe.com/Graphs/1.0/">
	<!ENTITY ns_vars "http://ns.adobe.com/Variables/1.0/">
	<!ENTITY ns_imrep "http://ns.adobe.com/ImageReplacement/1.0/">
	<!ENTITY ns_sfw "http://ns.adobe.com/SaveForWeb/1.0/">
	<!ENTITY ns_custom "http://ns.adobe.com/GenericCustomNamespace/1.0/">
	<!ENTITY ns_adobe_xpath "http://ns.adobe.com/XPath/1.0/">
]>
<svg version="1.1" id="레이어_1" xmlns:x="&ns_extend;" xmlns:i="&ns_ai;" xmlns:graph="&ns_graphs;"
	 xmlns="http://www.w3.org/2000/svg" xmlns:xlink="http://www.w3.org/1999/xlink" x="0px" y="0px" width="65.197px"
	 height="14.173px" viewBox="0 0 65.197 14.173" enable-background="new 0 0 65.197 14.173" xml:space="preserve">
<metadata>
	<sfw  xmlns="&ns_sfw;">
		<slices></slices>
		<sliceSourceBounds  x="253.989" y="-8589" height="16383" width="74.678" bottomLeftOrigin="true"></sliceSourceBounds>
	</sfw>
</metadata>
<g>
	<g>
		<path d="M10.325,2.445h0.26l-3.536,9.282H6.763l-3.64-9.282h0.26l3.51,8.944h0.026L10.325,2.445z"/>
		<path d="M11.897,3.758h-0.26V2.445h0.26V3.758z M11.897,11.727h-0.26V5.045h0.26V11.727z"/>
		<path d="M19.099,2.445h0.26v9.282h-0.26V9.856h-0.026c-0.338,1.17-1.313,2.027-2.678,2.027c-1.768,0-2.847-1.469-2.847-3.484
			c0-1.872,1.001-3.51,2.847-3.51c1.417,0,2.366,0.819,2.678,2.028h0.026V2.445z M16.395,5.149c-1.833,0-2.587,1.703-2.587,3.25
			c0,1.717,0.858,3.225,2.587,3.225c1.716,0,2.704-1.495,2.704-3.225C19.099,6.333,18.021,5.149,16.395,5.149z"/>
		<path d="M21.322,8.438c0.026,1.795,0.741,3.186,2.639,3.186c1.378,0,2.392-0.768,2.613-2.21h0.26
			c-0.182,1.534-1.326,2.47-2.847,2.47c-2.067,0.026-2.925-1.508-2.925-3.497c0-2.223,1.417-3.497,2.925-3.497
			c2.08,0,3.003,1.716,2.925,3.549H21.322z M26.652,8.178c0.013-1.638-0.91-3.029-2.639-3.029c-1.443,0-2.601,1.157-2.691,3.029
			H26.652z"/>
		<path d="M31.189,4.889c1.95,0,3.003,1.677,3.003,3.497c0,1.833-1.053,3.497-3.016,3.497c-1.95,0-3.003-1.664-3.003-3.497
			C28.173,6.566,29.226,4.889,31.189,4.889z M31.189,11.624c1.781,0,2.743-1.547,2.743-3.237c0-1.664-0.962-3.237-2.743-3.237
			c-1.807,0-2.756,1.573-2.756,3.237C28.433,10.077,29.382,11.624,31.189,11.624z"/>
		<path d="M44.033,7.645v-0.26h3.861v4.355h-0.26V9.426h-0.025c-0.482,1.573-1.898,2.522-3.705,2.522
			c-2.873,0-4.355-2.185-4.355-4.862c0-2.717,1.625-4.862,4.355-4.862c2.08,0,3.549,1.222,3.848,3.12h-0.26
			c-0.326-1.729-1.664-2.86-3.588-2.86c-2.588,0-4.096,2.08-4.096,4.602c0,2.521,1.391,4.602,4.135,4.602
			c2.053,0,3.691-1.508,3.691-3.562V7.645H44.033z"/>
		<path d="M49.494,8.438c0.025,1.795,0.74,3.186,2.639,3.186c1.379,0,2.393-0.768,2.613-2.21h0.26
			c-0.182,1.534-1.326,2.47-2.848,2.47c-2.066,0.026-2.924-1.508-2.924-3.497c0-2.223,1.416-3.497,2.924-3.497
			c2.08,0,3.004,1.716,2.926,3.549H49.494z M54.824,8.178c0.014-1.638-0.91-3.029-2.639-3.029c-1.443,0-2.602,1.157-2.691,3.029
			H54.824z"/>
		<path d="M56.514,5.045h0.26v1.651h0.025c0.248-1.027,1.092-1.807,2.133-1.807c1.039-0.026,1.781,0.572,2.002,1.56h0.025
			c0.26-0.923,1.105-1.56,2.119-1.56c1.613,0,2.119,1.001,2.119,2.444v4.394h-0.26V7.333c0-1.326-0.402-2.184-1.859-2.184
			c-1.312,0-2.08,1.092-2.092,2.339v4.238h-0.262V7.438c0.014-1.236-0.311-2.289-1.793-2.289c-1.326,0-2.158,1.313-2.158,2.794
			v3.783h-0.26V5.045z"/>
	</g>
</g>
</svg>
