<?xml version="1.0" encoding="utf-8"?>
<!-- Generator: Adobe Illustrator 15.1.0, SVG Export Plug-In . SVG Version: 6.00 Build 0)  -->
<!DOCTYPE svg PUBLIC "-//W3C//DTD SVG 1.1//EN" "http://www.w3.org/Graphics/SVG/1.1/DTD/svg11.dtd" [
	<!ENTITY ns_extend "http://ns.adobe.com/Extensibility/1.0/">
	<!ENTITY ns_ai "http://ns.adobe.com/AdobeIllustrator/10.0/">
	<!ENTITY ns_graphs "http://ns.adobe.com/Graphs/1.0/">
	<!ENTITY ns_vars "http://ns.adobe.com/Variables/1.0/">
	<!ENTITY ns_imrep "http://ns.adobe.com/ImageReplacement/1.0/">
	<!ENTITY ns_sfw "http://ns.adobe.com/SaveForWeb/1.0/">
	<!ENTITY ns_custom "http://ns.adobe.com/GenericCustomNamespace/1.0/">
	<!ENTITY ns_adobe_xpath "http://ns.adobe.com/XPath/1.0/">
]>
<svg version="1.1" id="레이어_1" xmlns:x="&ns_extend;" xmlns:i="&ns_ai;" xmlns:graph="&ns_graphs;"
	 xmlns="http://www.w3.org/2000/svg" xmlns:xlink="http://www.w3.org/1999/xlink" x="0px" y="0px" width="8.5px" height="11.34px"
	 viewBox="0 0 8.5 11.34" enable-background="new 0 0 8.5 11.34" xml:space="preserve">
<metadata>
	<sfw  xmlns="&ns_sfw;">
		<slices></slices>
		<sliceSourceBounds  x="0.559" y="-11.228" height="11.117" width="7.387" bottomLeftOrigin="true"></sliceSourceBounds>
	</sfw>
</metadata>
<g>
	<circle fill="#FFFFFF" cx="3.185" cy="3.377" r="1.803"/>
	<path fill="#FFFFFF" d="M6.768,0.111H4.646c0,0.342-0.118,0.657-0.317,0.906C4.892,1.291,5.361,1.76,5.616,2.383
		C6.163,3.724,5.519,5.26,4.179,5.808c-0.292,0.119-0.593,0.179-0.891,0.19C3.154,6.093,3.098,6.269,3.163,6.426
		C3.23,6.591,3.408,6.679,3.577,6.639c0.223-0.198,0.475-0.356,0.75-0.469c0.092-0.038,0.185-0.068,0.278-0.095
		c0.165-0.047,0.331-0.078,0.498-0.092C6.214,5.892,7.307,6.522,7.75,7.607c0.548,1.341-0.097,2.877-1.438,3.425
		c-1.34,0.548-2.876-0.098-3.424-1.438C2.675,9.071,2.642,8.51,2.768,7.985C2.99,8.079,3.233,8.132,3.489,8.132
		c0.031,0,0.061-0.003,0.091-0.004C3.479,8.502,3.497,8.907,3.65,9.283c0.376,0.92,1.431,1.363,2.351,0.987
		C6.922,9.895,7.364,8.84,6.988,7.919C6.667,7.133,5.851,6.697,5.046,6.82C4.91,6.841,4.772,6.876,4.638,6.932
		C4.493,6.991,4.362,7.066,4.24,7.159C4.212,7.181,4.185,7.203,4.158,7.226c-0.076,0.058-0.16,0.106-0.251,0.144
		c-0.443,0.182-0.934,0.067-1.254-0.25c0,0,0-0.001-0.001-0.001C2.641,7.107,2.63,7.095,2.62,7.083
		C2.529,6.984,2.454,6.869,2.4,6.737C2.31,6.515,2.292,6.281,2.336,6.061c0.013-0.062,0.033-0.123,0.056-0.182
		C1.675,5.651,1.06,5.12,0.754,4.371C0.206,3.03,0.851,1.493,2.191,0.945c0.325-0.132,0.662-0.193,0.993-0.193V0.75
		c0.353,0,0.64-0.286,0.64-0.639H0.559v9.939c0,0.65,0.527,1.178,1.178,1.178h6.209V1.289C7.945,0.638,7.418,0.111,6.768,0.111z"/>
</g>
</svg>
