<?xml version="1.0" encoding="utf-8"?>
<!-- Generator: Adobe Illustrator 15.1.0, SVG Export Plug-In . SVG Version: 6.00 Build 0)  -->
<!DOCTYPE svg PUBLIC "-//W3C//DTD SVG 1.1//EN" "http://www.w3.org/Graphics/SVG/1.1/DTD/svg11.dtd" [
	<!ENTITY ns_extend "http://ns.adobe.com/Extensibility/1.0/">
	<!ENTITY ns_ai "http://ns.adobe.com/AdobeIllustrator/10.0/">
	<!ENTITY ns_graphs "http://ns.adobe.com/Graphs/1.0/">
	<!ENTITY ns_vars "http://ns.adobe.com/Variables/1.0/">
	<!ENTITY ns_imrep "http://ns.adobe.com/ImageReplacement/1.0/">
	<!ENTITY ns_sfw "http://ns.adobe.com/SaveForWeb/1.0/">
	<!ENTITY ns_custom "http://ns.adobe.com/GenericCustomNamespace/1.0/">
	<!ENTITY ns_adobe_xpath "http://ns.adobe.com/XPath/1.0/">
]>
<svg version="1.1" id="레이어_1" xmlns:x="&ns_extend;" xmlns:i="&ns_ai;" xmlns:graph="&ns_graphs;"
	 xmlns="http://www.w3.org/2000/svg" xmlns:xlink="http://www.w3.org/1999/xlink" x="0px" y="0px" width="65.197px"
	 height="14.173px" viewBox="0 0 65.197 14.173" enable-background="new 0 0 65.197 14.173" xml:space="preserve">
<metadata>
	<sfw  xmlns="&ns_sfw;">
		<slices></slices>
		<sliceSourceBounds  x="253.988" y="-8589" height="16383" width="74.679" bottomLeftOrigin="true"></sliceSourceBounds>
	</sfw>
</metadata>
<g>
	<path d="M11.429,2.445h0.429v9.283h-0.26V2.77h-0.026l-3.939,8.958H7.347L3.408,2.77H3.382v8.958h-0.26V2.445h0.429l3.926,8.945
		h0.026L11.429,2.445z"/>
	<path d="M16.044,4.889c1.949,0,3.003,1.677,3.003,3.497c0,1.833-1.054,3.497-3.017,3.497c-1.949,0-3.002-1.664-3.002-3.497
		C13.029,6.566,14.082,4.889,16.044,4.889z M16.044,11.624c1.781,0,2.742-1.547,2.742-3.237c0-1.664-0.961-3.236-2.742-3.236
		c-1.807,0-2.756,1.572-2.756,3.236C13.289,10.077,14.238,11.624,16.044,11.624z"/>
	<path d="M25.429,2.445h0.261v9.283h-0.261V9.855h-0.025c-0.338,1.17-1.312,2.028-2.678,2.028c-1.769,0-2.848-1.469-2.848-3.483
		c0-1.873,1.002-3.511,2.848-3.511c1.416,0,2.365,0.819,2.678,2.028h0.025V2.445z M22.726,5.15c-1.834,0-2.588,1.703-2.588,3.25
		c0,1.716,0.858,3.224,2.588,3.224c1.716,0,2.703-1.495,2.703-3.224C25.429,6.333,24.351,5.15,22.726,5.15z"/>
	<path d="M27.185,8.439c0.025,1.793,0.74,3.185,2.639,3.185c1.378,0,2.393-0.767,2.613-2.21h0.26
		c-0.182,1.534-1.326,2.47-2.848,2.47c-2.066,0.026-2.924-1.508-2.924-3.497c0-2.223,1.416-3.497,2.924-3.497
		c2.08,0,3.004,1.716,2.926,3.55H27.185z M32.515,8.178c0.012-1.638-0.91-3.028-2.639-3.028c-1.443,0-2.602,1.156-2.691,3.028
		H32.515z"/>
	<path d="M33.92,2.445h0.26v9.283h-0.26V2.445z"/>
	<path d="M43.695,7.646V7.385h3.861v4.355h-0.26V9.426h-0.025c-0.482,1.573-1.898,2.522-3.705,2.522
		c-2.873,0-4.355-2.184-4.355-4.862c0-2.718,1.625-4.862,4.355-4.862c2.08,0,3.549,1.223,3.848,3.12h-0.26
		c-0.326-1.729-1.664-2.86-3.588-2.86c-2.588,0-4.096,2.08-4.096,4.603s1.391,4.603,4.135,4.603c2.053,0,3.691-1.508,3.691-3.562
		v-0.48H43.695z"/>
	<path d="M49.324,8.439c0.025,1.793,0.74,3.185,2.639,3.185c1.379,0,2.393-0.767,2.613-2.21h0.26
		c-0.182,1.534-1.326,2.47-2.848,2.47c-2.066,0.026-2.924-1.508-2.924-3.497c0-2.223,1.416-3.497,2.924-3.497
		c2.08,0,3.004,1.716,2.926,3.55H49.324z M54.654,8.178c0.012-1.638-0.91-3.028-2.639-3.028c-1.443,0-2.602,1.156-2.691,3.028
		H54.654z"/>
	<path d="M56.514,5.045h0.26v1.651h0.025c0.248-1.027,1.092-1.808,2.133-1.808c1.039-0.026,1.781,0.572,2.002,1.56h0.025
		c0.26-0.922,1.105-1.56,2.119-1.56c1.613,0,2.119,1.001,2.119,2.444v4.395h-0.26V7.333c0-1.326-0.402-2.184-1.859-2.184
		c-1.312,0-2.08,1.092-2.092,2.34v4.238h-0.262V7.437c0.014-1.234-0.311-2.287-1.793-2.287c-1.326,0-2.158,1.312-2.158,2.795v3.783
		h-0.26V5.045z"/>
</g>
</svg>
