<?xml version="1.0" encoding="utf-8"?>
<!-- Generator: Adobe Illustrator 15.1.0, SVG Export Plug-In . SVG Version: 6.00 Build 0)  -->
<!DOCTYPE svg PUBLIC "-//W3C//DTD SVG 1.1//EN" "http://www.w3.org/Graphics/SVG/1.1/DTD/svg11.dtd" [
	<!ENTITY ns_extend "http://ns.adobe.com/Extensibility/1.0/">
	<!ENTITY ns_ai "http://ns.adobe.com/AdobeIllustrator/10.0/">
	<!ENTITY ns_graphs "http://ns.adobe.com/Graphs/1.0/">
	<!ENTITY ns_vars "http://ns.adobe.com/Variables/1.0/">
	<!ENTITY ns_imrep "http://ns.adobe.com/ImageReplacement/1.0/">
	<!ENTITY ns_sfw "http://ns.adobe.com/SaveForWeb/1.0/">
	<!ENTITY ns_custom "http://ns.adobe.com/GenericCustomNamespace/1.0/">
	<!ENTITY ns_adobe_xpath "http://ns.adobe.com/XPath/1.0/">
]>
<svg version="1.1" id="레이어_1" xmlns:x="&ns_extend;" xmlns:i="&ns_ai;" xmlns:graph="&ns_graphs;"
	 xmlns="http://www.w3.org/2000/svg" xmlns:xlink="http://www.w3.org/1999/xlink" x="0px" y="0px" width="110.495px"
	 height="26.986px" viewBox="0 0 110.495 26.986" enable-background="new 0 0 110.495 26.986" xml:space="preserve">
<metadata>
	<sfw  xmlns="&ns_sfw;">
		<slices></slices>
		<sliceSourceBounds  x="228.217" y="-410.322" height="26.965" width="110.459" bottomLeftOrigin="true"></sliceSourceBounds>
	</sfw>
</metadata>
<g>
	<path fill="#FFFFFF" d="M17.888,4.979h5.7v0.3h-5.7v5.43h-0.3V0h6.6v0.3h-6.3V4.979z"/>
	<path fill="#FFFFFF" d="M25.253,0h0.3v10.709h-0.3V0z"/>
	<path fill="#FFFFFF" d="M27.623,0h0.45l7.32,10.334h0.03V0h0.3v10.709h-0.45L27.953,0.375h-0.03v10.334h-0.3V0z"/>
	<path fill="#FFFFFF" d="M37.792,0h3.75c2.13,0,4.56,1.14,4.56,5.354c0,3.84-2.445,5.355-5.025,5.355h-3.285V0z M38.092,10.41h3.06
		c2.535,0,4.65-1.605,4.65-5.055c0-4.004-2.19-5.055-4.335-5.055h-3.375V10.41z"/>
	<path fill="#FFFFFF" d="M60.352,10.709h-0.391l-1.334-1.695c-0.6,1.095-1.605,1.95-3.135,1.95c-1.5,0-3.06-1.005-3.06-2.655
		c0-1.74,1.605-2.715,2.88-3.51c-0.585-0.825-1.59-1.8-1.59-2.805c0-1.38,1.125-1.995,2.19-1.995c1.186,0,2.189,0.735,2.189,1.995
		c0,1.41-1.379,2.16-2.355,2.88l2.82,3.57c0.195-0.435,0.391-1.095,0.359-1.89h0.301c0.016,0.885-0.15,1.485-0.449,2.16
		L60.352,10.709z M55.492,5.04c-1.215,0.765-2.76,1.605-2.76,3.27c0,1.53,1.38,2.355,2.76,2.355c1.424,0,2.385-0.81,2.94-1.935
		L55.492,5.04z M55.567,4.65c0.855-0.585,2.234-1.41,2.234-2.655c0-1.05-0.885-1.695-1.874-1.695c-1.035,0-1.905,0.615-1.905,1.665
		C54.022,2.655,54.487,3.255,55.567,4.65z"/>
	<path fill="#FFFFFF" d="M72.817,10.41v0.3h-6.555V0h0.301v10.41H72.817z"/>
	<path fill="#FFFFFF" d="M73.926,0h0.301v10.709h-0.301V0z"/>
	<path fill="#FFFFFF" d="M76.297,0h0.449l7.32,10.334h0.029V0h0.301v10.709h-0.449l-7.32-10.334h-0.029v10.334h-0.301V0z"/>
	<path fill="#FFFFFF" d="M86.768,6.915v3.795h-0.301V0h0.301v6.51L94.192,0h0.449l-5.174,4.56l5.475,6.15h-0.404l-5.311-5.97
		L86.768,6.915z"/>
	<path fill="#FFFFFF" d="M1.77,23.186l-1.425,3.523H0L4.35,16h0.39L8.97,26.709H8.64l-1.41-3.523H1.77z M7.11,22.885l-2.55-6.584
		H4.53l-2.64,6.584H7.11z"/>
	<path fill="#FFFFFF" d="M14.985,21.279v5.43h-0.3V16h0.3v4.98h7.5V16h0.3v10.709h-0.3v-5.43H14.985z"/>
	<path fill="#FFFFFF" d="M24.855,16h0.3v10.709h-0.3V16z"/>
	<path fill="#FFFFFF" d="M27.225,16h3.75c2.13,0,4.56,1.141,4.56,5.355c0,3.84-2.445,5.354-5.025,5.354h-3.285V16z M27.525,26.41
		h3.06c2.535,0,4.65-1.605,4.65-5.055c0-4.006-2.19-5.055-4.335-5.055h-3.375V26.41z"/>
	<path fill="#FFFFFF" d="M37.395,16h3.75c2.13,0,4.56,1.141,4.56,5.355c0,3.84-2.445,5.354-5.025,5.354h-3.285V16z M37.695,26.41
		h3.06c2.535,0,4.65-1.605,4.65-5.055c0-4.006-2.19-5.055-4.335-5.055h-3.375V26.41z"/>
	<path fill="#FFFFFF" d="M47.865,26.41h6.87v0.299h-7.169V16h7.11v0.301h-6.81v4.68h6.405v0.299h-6.405V26.41z"/>
	<path fill="#FFFFFF" d="M56.069,16h0.451l7.32,10.334h0.029V16h0.299v10.709h-0.449l-7.32-10.334H56.37v10.334h-0.301V16z"/>
	<path fill="#FFFFFF" d="M75.704,22v-0.301h4.455v5.025H79.86v-2.67h-0.031c-0.555,1.814-2.189,2.91-4.273,2.91
		c-3.316,0-5.025-2.52-5.025-5.609c0-3.135,1.875-5.611,5.025-5.611c2.398,0,4.094,1.41,4.439,3.602h-0.301
		c-0.375-1.996-1.92-3.301-4.139-3.301c-2.986,0-4.725,2.4-4.725,5.311c0,2.908,1.604,5.309,4.77,5.309
		c2.369,0,4.26-1.74,4.26-4.109V22H75.704z"/>
	<path fill="#FFFFFF" d="M82.44,26.41h6.869v0.299h-7.17V16h7.109v0.301H82.44v4.68h6.404v0.299H82.44V26.41z"/>
	<path fill="#FFFFFF" d="M100.229,16h0.494v10.709h-0.299V16.375h-0.031l-4.545,10.334h-0.33l-4.545-10.334h-0.029v10.334h-0.301V16
		h0.496l4.529,10.32H95.7L100.229,16z"/>
	<path fill="#FFFFFF" d="M109.95,19c-0.076-2.189-1.545-2.955-3.48-2.955c-1.516,0-3.359,0.539-3.359,2.459
		c0,1.936,1.859,2.16,3.689,2.596c1.994,0.51,3.66,0.75,3.66,2.984c0,2.025-1.951,2.881-3.781,2.881
		c-2.43,0-4.229-1.109-4.184-3.811h0.299c0,2.564,1.605,3.51,3.885,3.51c1.682,0,3.48-0.75,3.48-2.594c0-2.16-2.1-2.34-3.75-2.746
		c-1.74-0.404-3.6-0.719-3.6-2.82c0-2.129,1.936-2.76,3.66-2.76c2.1,0,3.674,0.855,3.779,3.256H109.95z"/>
</g>
</svg>
