<?xml version="1.0" encoding="utf-8"?>
<!-- Generator: Adobe Illustrator 15.1.0, SVG Export Plug-In . SVG Version: 6.00 Build 0)  -->
<!DOCTYPE svg PUBLIC "-//W3C//DTD SVG 1.1//EN" "http://www.w3.org/Graphics/SVG/1.1/DTD/svg11.dtd" [
	<!ENTITY ns_extend "http://ns.adobe.com/Extensibility/1.0/">
	<!ENTITY ns_ai "http://ns.adobe.com/AdobeIllustrator/10.0/">
	<!ENTITY ns_graphs "http://ns.adobe.com/Graphs/1.0/">
	<!ENTITY ns_vars "http://ns.adobe.com/Variables/1.0/">
	<!ENTITY ns_imrep "http://ns.adobe.com/ImageReplacement/1.0/">
	<!ENTITY ns_sfw "http://ns.adobe.com/SaveForWeb/1.0/">
	<!ENTITY ns_custom "http://ns.adobe.com/GenericCustomNamespace/1.0/">
	<!ENTITY ns_adobe_xpath "http://ns.adobe.com/XPath/1.0/">
]>
<svg version="1.1" id="레이어_1" xmlns:x="&ns_extend;" xmlns:i="&ns_ai;" xmlns:graph="&ns_graphs;"
	 xmlns="http://www.w3.org/2000/svg" xmlns:xlink="http://www.w3.org/1999/xlink" x="0px" y="0px" width="14.173px"
	 height="14.173px" viewBox="0 0 14.173 14.173" enable-background="new 0 0 14.173 14.173" xml:space="preserve">
<metadata>
	<sfw  xmlns="&ns_sfw;">
		<slices></slices>
		<sliceSourceBounds  x="291.646" y="-425.532" height="9.174" width="11.989" bottomLeftOrigin="true"></sliceSourceBounds>
	</sfw>
</metadata>
<g>
	<polygon points="10.134,9.998 9.784,9.998 9.784,4.365 4.39,4.365 4.39,9.998 4.04,9.998 4.04,3.984 10.134,3.984 	"/>
	<rect x="9.96" y="3.984" width="3.121" height="0.381"/>
	<rect x="1.092" y="3.984" width="3.123" height="0.381"/>
	<rect x="1.092" y="2.5" width="11.989" height="0.381"/>
	<rect x="2.125" y="2.69" width="0.351" height="1.485"/>
	<rect x="4.04" y="2.69" width="0.35" height="1.485"/>
	<rect x="5.955" y="2.69" width="0.351" height="1.485"/>
	<rect x="7.87" y="2.69" width="0.35" height="1.485"/>
	<rect x="9.784" y="2.69" width="0.35" height="1.485"/>
	<rect x="11.699" y="2.69" width="0.35" height="1.485"/>
	<rect x="4.214" y="9.809" width="8.867" height="0.38"/>
	<rect x="1.092" y="9.809" width="3.123" height="0.38"/>
	<rect x="1.092" y="11.292" width="11.989" height="0.382"/>
	<rect x="2.125" y="9.998" width="0.351" height="1.484"/>
	<rect x="4.04" y="9.998" width="0.35" height="1.484"/>
	<rect x="5.955" y="9.998" width="0.351" height="1.484"/>
	<rect x="7.87" y="9.998" width="0.35" height="1.484"/>
	<rect x="9.784" y="9.998" width="0.35" height="1.484"/>
	<rect x="11.699" y="9.998" width="0.35" height="1.484"/>
	<polygon points="6.572,4.777 9.408,7.583 9.408,4.777 	"/>
</g>
</svg>
