<?xml version="1.0" encoding="utf-8"?>
<!-- Generator: Adobe Illustrator 15.1.0, SVG Export Plug-In . SVG Version: 6.00 Build 0)  -->
<!DOCTYPE svg PUBLIC "-//W3C//DTD SVG 1.1//EN" "http://www.w3.org/Graphics/SVG/1.1/DTD/svg11.dtd" [
	<!ENTITY ns_extend "http://ns.adobe.com/Extensibility/1.0/">
	<!ENTITY ns_ai "http://ns.adobe.com/AdobeIllustrator/10.0/">
	<!ENTITY ns_graphs "http://ns.adobe.com/Graphs/1.0/">
	<!ENTITY ns_vars "http://ns.adobe.com/Variables/1.0/">
	<!ENTITY ns_imrep "http://ns.adobe.com/ImageReplacement/1.0/">
	<!ENTITY ns_sfw "http://ns.adobe.com/SaveForWeb/1.0/">
	<!ENTITY ns_custom "http://ns.adobe.com/GenericCustomNamespace/1.0/">
	<!ENTITY ns_adobe_xpath "http://ns.adobe.com/XPath/1.0/">
]>
<svg version="1.1" id="레이어_1" xmlns:x="&ns_extend;" xmlns:i="&ns_ai;" xmlns:graph="&ns_graphs;"
	 xmlns="http://www.w3.org/2000/svg" xmlns:xlink="http://www.w3.org/1999/xlink" x="0px" y="0px" width="14.173px"
	 height="14.173px" viewBox="0 0 14.173 14.173" enable-background="new 0 0 14.173 14.173" xml:space="preserve">
<metadata>
	<sfw  xmlns="&ns_sfw;">
		<slices></slices>
		<sliceSourceBounds  x="292.758" y="-426.819" height="11.749" width="9.764" bottomLeftOrigin="true"></sliceSourceBounds>
	</sfw>
</metadata>
<g>
	<path d="M10.914,12.961H3.259c-0.582,0-1.055-0.473-1.055-1.055V7.723c0-0.58,0.473-1.053,1.055-1.053h1.698
		c0.137,0,0.258-0.088,0.299-0.22l0.104-0.339C5.453,5.819,5.72,5.623,6.025,5.623h2.124c0.306,0,0.572,0.196,0.664,0.488
		L8.917,6.45c0.041,0.132,0.162,0.22,0.299,0.22h1.698c0.582,0,1.055,0.473,1.055,1.053v4.184
		C11.969,12.488,11.496,12.961,10.914,12.961z M3.259,7.05c-0.372,0-0.674,0.302-0.674,0.673v4.184c0,0.373,0.303,0.676,0.674,0.676
		h7.655c0.372,0,0.675-0.303,0.675-0.676V7.723c0-0.371-0.303-0.673-0.675-0.673H9.216c-0.305,0-0.57-0.195-0.662-0.485l-0.105-0.34
		c-0.042-0.132-0.162-0.221-0.3-0.221H6.025c-0.138,0-0.258,0.089-0.3,0.221l-0.105,0.34C5.528,6.854,5.262,7.05,4.958,7.05H3.259z"
		/>
	<path d="M7.086,11.998c-1.273,0-2.309-1.034-2.309-2.307c0-1.273,1.036-2.311,2.309-2.311s2.309,1.037,2.309,2.311
		C9.396,10.964,8.359,11.998,7.086,11.998z M7.086,7.762c-1.063,0-1.928,0.865-1.928,1.93c0,1.062,0.865,1.928,1.928,1.928
		s1.928-0.865,1.928-1.928C9.015,8.627,8.15,7.762,7.086,7.762z"/>
	<path d="M7.086,8.105c-0.209,0-0.407,0.041-0.591,0.115c0.583,0.234,0.996,0.804,0.996,1.471c0,0.664-0.412,1.234-0.996,1.469
		c0.184,0.073,0.381,0.115,0.591,0.115c0.874,0,1.585-0.711,1.585-1.584C8.672,8.816,7.96,8.105,7.086,8.105z"/>
	<path d="M8.64,5.049H5.533c-0.381,0-0.691-0.31-0.691-0.691V1.902c0-0.381,0.31-0.69,0.691-0.69H8.64
		c0.382,0,0.691,0.31,0.691,0.69v2.455C9.331,4.739,9.021,5.049,8.64,5.049z M5.533,1.592c-0.171,0-0.311,0.14-0.311,0.311v2.455
		c0,0.172,0.139,0.311,0.311,0.311H8.64c0.172,0,0.311-0.139,0.311-0.311V1.902c0-0.171-0.139-0.311-0.311-0.311H5.533z"/>
	<path d="M8.267,3.721H5.906c-0.105,0-0.189-0.086-0.189-0.191V2.318c0-0.105,0.084-0.19,0.189-0.19h2.361
		c0.105,0,0.191,0.085,0.191,0.19v1.211C8.458,3.635,8.373,3.721,8.267,3.721z M6.096,3.34h1.981V2.508H6.096V3.34z"/>
	<path d="M7.747,6.004c-0.105,0-0.191-0.086-0.191-0.19V4.858c0-0.104,0.086-0.19,0.191-0.19c0.104,0,0.189,0.086,0.189,0.19v0.955
		C7.936,5.918,7.851,6.004,7.747,6.004z"/>
	<path d="M6.426,6.004c-0.104,0-0.189-0.086-0.189-0.19V4.858c0-0.104,0.085-0.19,0.189-0.19c0.105,0,0.191,0.086,0.191,0.19v0.955
		C6.617,5.918,6.531,6.004,6.426,6.004z"/>
	<path d="M11.089,8.604h-0.562c-0.329,0-0.599-0.27-0.599-0.6V7.549c0-0.105,0.086-0.189,0.189-0.189
		c0.105,0,0.191,0.084,0.191,0.189v0.455c0,0.121,0.098,0.219,0.218,0.219h0.562c0.105,0,0.191,0.085,0.191,0.189
		C11.28,8.518,11.194,8.604,11.089,8.604z"/>
</g>
</svg>
