<?xml version="1.0" encoding="utf-8"?>
<!-- Generator: Adobe Illustrator 15.1.0, SVG Export Plug-In . SVG Version: 6.00 Build 0)  -->
<!DOCTYPE svg PUBLIC "-//W3C//DTD SVG 1.1//EN" "http://www.w3.org/Graphics/SVG/1.1/DTD/svg11.dtd" [
	<!ENTITY ns_extend "http://ns.adobe.com/Extensibility/1.0/">
	<!ENTITY ns_ai "http://ns.adobe.com/AdobeIllustrator/10.0/">
	<!ENTITY ns_graphs "http://ns.adobe.com/Graphs/1.0/">
	<!ENTITY ns_vars "http://ns.adobe.com/Variables/1.0/">
	<!ENTITY ns_imrep "http://ns.adobe.com/ImageReplacement/1.0/">
	<!ENTITY ns_sfw "http://ns.adobe.com/SaveForWeb/1.0/">
	<!ENTITY ns_custom "http://ns.adobe.com/GenericCustomNamespace/1.0/">
	<!ENTITY ns_adobe_xpath "http://ns.adobe.com/XPath/1.0/">
]>
<svg version="1.1" id="레이어_1" xmlns:x="&ns_extend;" xmlns:i="&ns_ai;" xmlns:graph="&ns_graphs;"
	 xmlns="http://www.w3.org/2000/svg" xmlns:xlink="http://www.w3.org/1999/xlink" x="0px" y="0px" width="14.173px"
	 height="14.173px" viewBox="0 0 14.173 14.173" enable-background="new 0 0 14.173 14.173" xml:space="preserve">
<metadata>
	<sfw  xmlns="&ns_sfw;">
		<slices></slices>
		<sliceSourceBounds  x="291.955" y="-426.714" height="11.538" width="11.372" bottomLeftOrigin="true"></sliceSourceBounds>
	</sfw>
</metadata>
<g>
	<path d="M12.588,12.855H11.72c-0.168,0-0.329-0.079-0.43-0.213l-0.176-0.238c-0.092-0.124-0.238-0.198-0.393-0.198H3.451
		c-0.154,0-0.301,0.074-0.394,0.198l-0.175,0.237c-0.101,0.135-0.261,0.214-0.43,0.214H1.585c-0.102,0-0.185-0.082-0.185-0.184
		v-1.336c0-0.035,0.011-0.07,0.03-0.102c0.6-0.919,0.823-2.511,0.826-2.526C2.301,8.344,2.322,7.98,2.345,7.597
		C2.367,7.229,2.389,6.85,2.434,6.469c0.01-0.082,0.074-0.148,0.156-0.16c0.508-0.077,1.038-0.143,1.573-0.194
		C4.264,6.102,4.354,6.178,4.363,6.28C4.374,6.381,4.3,6.472,4.198,6.481C3.719,6.528,3.245,6.586,2.785,6.652
		c-0.034,0.324-0.053,0.65-0.071,0.966C2.691,7.991,2.668,8.379,2.622,8.756c-0.01,0.069-0.231,1.643-0.852,2.635v1.098h0.683
		c0.054,0,0.102-0.024,0.133-0.067l0.175-0.237c0.162-0.217,0.419-0.347,0.689-0.347h7.271c0.27,0,0.527,0.13,0.689,0.347
		l0.176,0.237c0.031,0.042,0.08,0.067,0.133,0.067h0.684v-1.098c-0.621-0.992-0.843-2.565-0.852-2.633
		c-0.047-0.379-0.07-0.766-0.092-1.139c-0.018-0.316-0.038-0.643-0.072-0.967c-0.459-0.066-0.934-0.124-1.413-0.171
		C9.873,6.472,9.799,6.381,9.81,6.28c0.009-0.103,0.098-0.177,0.201-0.166c0.535,0.052,1.063,0.117,1.572,0.194
		c0.084,0.012,0.146,0.078,0.156,0.16c0.045,0.381,0.066,0.762,0.088,1.129c0.024,0.384,0.046,0.747,0.09,1.113
		c0.002,0.013,0.227,1.606,0.825,2.523c0.02,0.031,0.03,0.066,0.03,0.102v1.336C12.772,12.773,12.688,12.855,12.588,12.855z"/>
	<path d="M9.993,6.482c-0.103,0-0.186-0.083-0.186-0.186V2.819c0-0.113-0.091-0.204-0.203-0.204H9.063
		c-0.102,0-0.184-0.083-0.184-0.186V1.89c0-0.112-0.092-0.204-0.204-0.204H4.365v4.611c0,0.103-0.083,0.186-0.185,0.186
		c-0.102,0-0.185-0.083-0.185-0.186V1.502c0-0.103,0.083-0.185,0.185-0.185h4.496c0.315,0,0.572,0.257,0.572,0.572v0.356h0.356
		c0.315,0,0.573,0.257,0.573,0.573v3.478C10.178,6.399,10.095,6.482,9.993,6.482z"/>
	<path d="M8.219,4.32h-2.27c-0.101,0-0.184-0.082-0.184-0.185c0-0.102,0.083-0.185,0.184-0.185h2.27
		c0.102,0,0.185,0.083,0.185,0.185C8.404,4.238,8.321,4.32,8.219,4.32z"/>
	<path d="M8.197,5.09H5.926c-0.101,0-0.184-0.082-0.184-0.185c0-0.102,0.083-0.185,0.184-0.185h2.271
		c0.102,0,0.185,0.083,0.185,0.185C8.382,5.008,8.299,5.09,8.197,5.09z"/>
	<path d="M8.23,3.551H5.961c-0.102,0-0.185-0.082-0.185-0.184c0-0.103,0.083-0.185,0.185-0.185H8.23
		c0.103,0,0.185,0.082,0.185,0.185C8.415,3.469,8.333,3.551,8.23,3.551z"/>
	<path d="M8.221,7.949H5.952c-0.471,0-0.903-0.339-1.11-0.857H4.579c-0.322,0-0.584-0.262-0.584-0.582V6.297
		c0-0.102,0.083-0.184,0.185-0.184c0.102,0,0.185,0.082,0.185,0.184V6.51c0,0.117,0.096,0.213,0.214,0.213h0.394
		c0.082,0,0.153,0.053,0.176,0.131c0.135,0.435,0.457,0.728,0.803,0.728h2.269c0.346,0,0.66-0.287,0.804-0.73
		C9.05,6.774,9.12,6.723,9.2,6.723h0.394c0.118,0,0.214-0.096,0.214-0.213V6.297c0-0.102,0.083-0.184,0.186-0.184
		c0.102,0,0.185,0.082,0.185,0.184V6.51c0,0.32-0.263,0.582-0.584,0.582H9.329C9.116,7.617,8.692,7.949,8.221,7.949z"/>
	<path d="M9.194,6.429c-0.004,0-0.008,0-0.011,0c-1.392-0.079-2.802-0.079-4.193,0C4.895,6.43,4.801,6.356,4.795,6.254
		C4.79,6.152,4.868,6.065,4.969,6.06c1.404-0.079,2.83-0.079,4.235,0c0.102,0.006,0.18,0.093,0.174,0.194
		C9.372,6.354,9.29,6.429,9.194,6.429z"/>
	<g>
		<g>
			<g>
				<g>
					<g>
						<path d="M4.091,9.52c-0.049,0-0.099-0.02-0.133-0.061c-0.03-0.028-0.049-0.078-0.049-0.127s0.019-0.1,0.053-0.133
							c0.06-0.064,0.192-0.07,0.261,0.004c0.035,0.029,0.055,0.08,0.055,0.129s-0.02,0.099-0.055,0.133
							C4.189,9.5,4.14,9.52,4.091,9.52z"/>
						<path d="M9.258,9.332c0-0.104,0.079-0.183,0.183-0.183l0,0c0.104,0,0.187,0.079,0.187,0.183l0,0
							c0,0.104-0.083,0.188-0.187,0.188l0,0C9.337,9.52,9.258,9.436,9.258,9.332z M8.496,9.332c0-0.104,0.078-0.183,0.182-0.183l0,0
							c0.104,0,0.188,0.079,0.188,0.183l0,0c0,0.104-0.084,0.188-0.188,0.188l0,0C8.574,9.52,8.496,9.436,8.496,9.332z M7.733,9.332
							c0-0.104,0.078-0.183,0.181-0.183l0,0c0.104,0,0.188,0.079,0.188,0.183l0,0c0,0.104-0.084,0.188-0.188,0.188l0,0
							C7.811,9.52,7.733,9.436,7.733,9.332z M6.97,9.332c0-0.104,0.08-0.183,0.183-0.183l0,0c0.103,0,0.187,0.079,0.187,0.183l0,0
							c0,0.104-0.084,0.188-0.187,0.188l0,0C7.049,9.52,6.97,9.436,6.97,9.332z M6.208,9.332c0-0.104,0.078-0.183,0.182-0.183l0,0
							c0.103,0,0.187,0.079,0.187,0.183l0,0c0,0.104-0.084,0.188-0.187,0.188l0,0C6.286,9.52,6.208,9.436,6.208,9.332z M5.444,9.332
							c0-0.104,0.079-0.183,0.182-0.183l0,0c0.103,0,0.187,0.079,0.187,0.183l0,0c0,0.104-0.084,0.188-0.187,0.188l0,0
							C5.523,9.52,5.444,9.436,5.444,9.332z M4.682,9.332c0-0.104,0.078-0.183,0.182-0.183l0,0c0.104,0,0.187,0.079,0.187,0.183l0,0
							c0,0.104-0.083,0.188-0.187,0.188l0,0C4.76,9.52,4.682,9.436,4.682,9.332z"/>
						<path d="M10.208,9.52c-0.05,0-0.094-0.02-0.129-0.055c-0.033-0.034-0.055-0.084-0.055-0.133s0.021-0.1,0.055-0.133
							c0.064-0.064,0.188-0.07,0.262,0.004c0.035,0.029,0.055,0.08,0.055,0.129s-0.02,0.099-0.055,0.133
							C10.306,9.5,10.257,9.52,10.208,9.52z"/>
					</g>
				</g>
			</g>
		</g>
	</g>
	<g>
		<g>
			<g>
				<g>
					<g>
						<path d="M4.091,10.809c-0.045,0-0.094-0.02-0.129-0.049c-0.035-0.035-0.053-0.084-0.053-0.135
							c0-0.053,0.019-0.098,0.053-0.132c0.065-0.063,0.188-0.069,0.261,0c0.035,0.034,0.055,0.083,0.055,0.132
							c0,0.051-0.02,0.1-0.055,0.135C4.185,10.794,4.14,10.809,4.091,10.809z"/>
						<path d="M9.253,10.625c0-0.103,0.084-0.187,0.188-0.187l0,0c0.104,0,0.187,0.084,0.187,0.187l0,0
							c0,0.104-0.083,0.184-0.187,0.184l0,0C9.337,10.809,9.253,10.729,9.253,10.625z M8.496,10.625
							c0-0.103,0.078-0.187,0.182-0.187l0,0c0.104,0,0.188,0.084,0.188,0.187l0,0c0,0.104-0.084,0.184-0.188,0.184l0,0
							C8.574,10.809,8.496,10.729,8.496,10.625z M7.733,10.625c0-0.103,0.078-0.187,0.181-0.187l0,0
							c0.104,0,0.188,0.084,0.188,0.187l0,0c0,0.104-0.084,0.184-0.188,0.184l0,0C7.811,10.809,7.733,10.729,7.733,10.625z
							 M6.97,10.625c0-0.103,0.08-0.187,0.183-0.187l0,0c0.103,0,0.187,0.084,0.187,0.187l0,0c0,0.104-0.084,0.184-0.187,0.184l0,0
							C7.049,10.809,6.97,10.729,6.97,10.625z M6.208,10.625c0-0.103,0.078-0.187,0.182-0.187l0,0c0.103,0,0.187,0.084,0.187,0.187
							l0,0c0,0.104-0.084,0.184-0.187,0.184l0,0C6.286,10.809,6.208,10.729,6.208,10.625z M5.444,10.625
							c0-0.103,0.079-0.187,0.182-0.187l0,0c0.103,0,0.187,0.084,0.187,0.187l0,0c0,0.104-0.084,0.184-0.187,0.184l0,0
							C5.523,10.809,5.444,10.729,5.444,10.625z M4.682,10.625c0-0.103,0.078-0.187,0.182-0.187l0,0
							c0.104,0,0.187,0.084,0.187,0.187l0,0c0,0.104-0.083,0.184-0.187,0.184l0,0C4.76,10.809,4.682,10.729,4.682,10.625z"/>
						<path d="M10.208,10.809c-0.05,0-0.098-0.02-0.129-0.055c-0.033-0.029-0.055-0.078-0.055-0.129
							c0-0.049,0.021-0.098,0.055-0.132c0.061-0.063,0.193-0.069,0.262,0c0.035,0.034,0.055,0.079,0.055,0.132
							c0,0.051-0.02,0.1-0.055,0.129C10.306,10.794,10.257,10.809,10.208,10.809z"/>
					</g>
				</g>
			</g>
		</g>
	</g>
	<polygon points="8.525,2.04 4.719,2.04 4.719,2.512 8.525,2.512 8.525,2.43 	"/>
</g>
</svg>
